<svg xmlns="http://www.w3.org/2000/svg" xmlns:xlink="http://www.w3.org/1999/xlink" width="500" zoomAndPan="magnify" viewBox="0 0 375 374.999991" height="500" preserveAspectRatio="xMidYMid meet" version="1.0"><defs><g/><clipPath id="131219a7cc"><path d="M 36.75 221.171875 L 316.554688 221.171875 L 316.554688 238.800781 L 36.75 238.800781 Z M 36.75 221.171875 " clip-rule="nonzero"/></clipPath></defs><g clip-path="url(#131219a7cc)"><path fill="#000000" d="M 36.75 221.171875 L 316.554688 221.171875 L 316.554688 238.800781 L 36.75 238.800781 Z M 36.75 221.171875 " fill-opacity="1" fill-rule="nonzero"/></g><g fill="#000000" fill-opacity="1"><g transform="translate(36.750002, 192.632703)"><g><path d="M 32.640625 -10.695312 C 31.6875 -21.546875 12.832031 -26.222656 13.46875 -34.621094 C 13.707031 -37.945312 15.921875 -39.453125 18.695312 -39.054688 C 26.378906 -38.027344 28.679688 -30.5 29.628906 -25.746094 C 29.789062 -25.746094 30.023438 -25.746094 30.023438 -25.746094 L 30.023438 -38.582031 L 29.628906 -38.582031 C 29.234375 -38.183594 28.519531 -37.789062 27.648438 -37.710938 C 24.242188 -37.472656 21.863281 -39.691406 16.160156 -39.691406 C 10.296875 -39.691406 2.773438 -36.757812 2.773438 -30.421875 C 2.773438 -19.328125 22.816406 -13.152344 22.816406 -5.230469 C 22.816406 -2.375 20.519531 -0.078125 17.667969 -0.078125 C 16.082031 -0.078125 15.289062 -0.160156 14.261719 -0.316406 C 12.675781 -0.554688 11.328125 -1.742188 11.328125 -2.929688 C 11.328125 -4.992188 15.050781 -5.625 15.050781 -9.902344 C 15.050781 -13.230469 12.28125 -16.003906 8.871094 -16.003906 C 5.546875 -16.003906 2.773438 -13.230469 2.773438 -9.902344 C 2.773438 -4.039062 9.585938 0.394531 17.667969 0.394531 C 25.90625 0.394531 33.113281 -4.4375 32.640625 -10.695312 Z M 32.640625 -10.695312 "/></g></g></g><g fill="#000000" fill-opacity="1"><g transform="translate(67.56645, 192.632703)"><g><path d="M 37.945312 -4.355469 L 37.945312 -28.835938 C 37.945312 -42.226562 24.398438 -40.878906 17.113281 -37.234375 L 17.113281 -54.027344 C 17.113281 -54.820312 16.558594 -55.453125 15.765625 -55.453125 C 15.6875 -55.453125 15.605469 -55.453125 15.527344 -55.453125 L 1.980469 -53.472656 L 1.980469 -53 C 3.800781 -52.683594 5.230469 -51.019531 5.230469 -49.117188 L 5.230469 -4.355469 C 5.230469 -2.457031 3.800781 -0.792969 1.980469 -0.476562 L 1.980469 0 L 20.359375 0 L 20.359375 -0.476562 C 18.539062 -0.792969 17.113281 -2.457031 17.113281 -4.355469 L 17.113281 -36.679688 C 17.585938 -36.917969 20.914062 -38.5 24.796875 -38.5 C 27.964844 -38.5 30.183594 -37.472656 30.183594 -35.730469 C 30.183594 -32.796875 26.0625 -31.769531 26.0625 -27.726562 L 26.0625 -4.355469 C 26.0625 -2.457031 24.636719 -0.792969 22.816406 -0.476562 L 22.816406 0 L 41.195312 0 L 41.195312 -0.476562 C 39.371094 -0.792969 37.945312 -2.457031 37.945312 -4.355469 Z M 37.945312 -4.355469 "/></g></g></g><g fill="#000000" fill-opacity="1"><g transform="translate(106.06725, 192.632703)"><g><path d="M 5.230469 -4.355469 C 5.230469 -2.457031 3.800781 -0.792969 1.980469 -0.476562 L 1.980469 0 L 20.359375 0 L 20.359375 -0.476562 C 18.539062 -0.792969 17.113281 -2.457031 17.113281 -4.355469 L 17.113281 -37.550781 C 17.113281 -38.34375 16.558594 -38.898438 15.765625 -38.898438 C 15.6875 -38.898438 15.605469 -38.898438 15.527344 -38.898438 L 1.980469 -36.917969 L 1.980469 -36.441406 C 3.800781 -36.125 5.230469 -34.539062 5.230469 -32.558594 Z M 17.347656 -49.277344 C 17.347656 -52.683594 14.578125 -55.453125 11.171875 -55.453125 C 7.765625 -55.453125 5.070312 -52.683594 5.070312 -49.277344 C 5.070312 -45.949219 7.765625 -43.175781 11.171875 -43.175781 C 14.578125 -43.175781 17.347656 -45.949219 17.347656 -49.277344 Z M 17.347656 -49.277344 "/></g></g></g><g fill="#000000" fill-opacity="1"><g transform="translate(123.733151, 192.632703)"><g><path d="M 34.066406 -36.363281 C 33.113281 -38.421875 30.976562 -39.847656 28.597656 -39.847656 C 25.191406 -39.847656 22.417969 -37.074219 22.417969 -33.667969 C 22.417969 -30.339844 25.191406 -27.570312 28.597656 -27.570312 C 30.023438 -27.570312 30.816406 -28.125 32.164062 -28.125 C 34.304688 -28.125 34.539062 -26.300781 34.066406 -23.6875 C 33.195312 -18.378906 31.214844 -13.230469 28.28125 -9.03125 C 26.460938 -6.496094 24.480469 -4.355469 22.339844 -2.851562 C 21.074219 -1.902344 19.171875 -1.03125 17.585938 -0.871094 C 14.734375 -0.714844 12.992188 -1.980469 12.992188 -3.722656 C 12.992188 -6.65625 17.113281 -7.683594 17.113281 -11.726562 L 17.113281 -37.550781 C 17.113281 -38.34375 16.558594 -38.898438 15.765625 -38.898438 C 15.6875 -38.898438 15.605469 -38.898438 15.527344 -38.898438 L 1.980469 -36.917969 L 1.980469 -36.441406 C 3.800781 -36.125 5.230469 -34.539062 5.230469 -32.558594 L 5.230469 -10.773438 C 5.230469 -3.40625 9.03125 0.394531 14.417969 0.394531 C 24.875 0.394531 35.09375 -13.941406 35.09375 -30.105469 C 35.09375 -32.003906 35.015625 -34.460938 34.066406 -36.363281 Z M 34.066406 -36.363281 "/></g></g></g><g fill="#000000" fill-opacity="1"><g transform="translate(156.926202, 192.632703)"><g><path d="M 35.332031 -5.941406 L 35.332031 -29.867188 C 35.332031 -33.75 32.71875 -36.441406 29.707031 -37.945312 C 26.699219 -39.53125 22.738281 -40.085938 18.617188 -39.453125 C 12.992188 -38.660156 5.308594 -34.539062 5.308594 -28.359375 C 5.308594 -24.953125 8 -22.261719 11.40625 -22.261719 C 14.8125 -22.261719 17.585938 -24.953125 17.585938 -28.359375 C 17.585938 -32.003906 14.179688 -33.035156 14.179688 -35.964844 C 14.179688 -37.628906 15.84375 -38.582031 18.695312 -38.976562 C 22.578125 -39.609375 26.378906 -39.054688 29.46875 -37.550781 C 32.003906 -36.285156 34.144531 -33.984375 34.144531 -31.847656 C 34.144531 -25.746094 15.605469 -23.054688 8.792969 -18.777344 C 4.4375 -16.082031 1.902344 -11.40625 3.167969 -6.890625 C 4.355469 -2.457031 8.792969 0.394531 13.785156 0.394531 C 18.222656 0.394531 21.46875 -1.585938 23.371094 -3.011719 L 23.371094 -1.03125 C 23.371094 -0.238281 24.003906 0.394531 24.796875 0.394531 C 24.875 0.394531 24.953125 0.394531 24.953125 0.394531 L 38.582031 -1.585938 L 38.582031 -2.058594 C 36.757812 -2.375 35.332031 -4.039062 35.332031 -5.941406 Z M 23.371094 -3.566406 C 21.628906 -2.296875 18.933594 -2.773438 17.191406 -4.675781 C 15.527344 -6.496094 14.578125 -9.425781 14.8125 -13.230469 C 15.289062 -19.882812 20.121094 -22.417969 23.371094 -23.925781 Z M 23.371094 -3.566406 "/></g></g></g><g fill="#000000" fill-opacity="1"><g transform="translate(192.812745, 192.632703)"><g><path d="M 31.6875 -38.898438 L 31.6875 -38.421875 C 34.304688 -38.183594 36.363281 -35.886719 36.363281 -33.195312 C 36.363281 -32.402344 36.203125 -31.609375 35.886719 -30.894531 L 27.886719 -14.101562 L 16.796875 -37.3125 C 16.320312 -38.265625 15.367188 -38.898438 13.941406 -38.898438 L 0.394531 -38.898438 L 0.394531 -38.421875 C 1.902344 -38.265625 3.566406 -36.839844 4.277344 -35.410156 L 21.152344 0 L 18.695312 5.148438 C 16.242188 10.21875 18.0625 16.160156 22.65625 18.378906 C 28.441406 21.074219 36.203125 16.242188 36.203125 10.21875 C 36.203125 6.8125 33.429688 4.039062 30.023438 4.039062 C 26.699219 4.039062 23.925781 6.8125 23.925781 10.21875 C 23.925781 13.863281 27.648438 15.210938 27.648438 17.269531 C 27.648438 18.0625 27.171875 18.695312 26.300781 18.695312 C 25.113281 18.695312 23.925781 18.457031 22.894531 17.984375 C 18.539062 15.84375 16.796875 10.21875 19.09375 5.308594 L 35.886719 -29.867188 C 37.789062 -33.75 42.382812 -37.867188 46.742188 -38.421875 L 46.742188 -38.898438 Z M 31.6875 -38.898438 "/></g></g></g><g fill="#000000" fill-opacity="1"><g transform="translate(235.274548, 192.632703)"><g><path d="M 20.835938 -39.691406 C 10.851562 -39.691406 2.773438 -30.738281 2.773438 -19.648438 C 2.773438 -8.554688 10.851562 0.394531 20.835938 0.394531 C 30.816406 0.394531 38.898438 -8.554688 38.898438 -19.648438 C 38.898438 -30.738281 30.816406 -39.691406 20.835938 -39.691406 Z M 20.835938 -0.078125 C 16.875 -0.078125 14.65625 -6.65625 14.65625 -19.648438 C 14.65625 -32.71875 16.875 -39.214844 20.835938 -39.214844 C 24.796875 -39.214844 26.933594 -32.71875 26.933594 -19.648438 C 26.933594 -6.65625 24.796875 -0.078125 20.835938 -0.078125 Z M 20.835938 -0.078125 "/></g></g></g><g fill="#000000" fill-opacity="1"><g transform="translate(272.270163, 192.632703)"><g><path d="M 33.351562 -8.554688 C 37.628906 -11.726562 40.324219 -16.714844 40.324219 -22.261719 C 40.324219 -28.359375 37.234375 -33.589844 32.324219 -36.757812 C 30.738281 -37.789062 29.46875 -39.136719 29.46875 -40.480469 C 29.46875 -41.671875 30.421875 -42.78125 32.164062 -43.492188 C 34.460938 -44.523438 36.203125 -46.660156 36.203125 -49.277344 C 36.203125 -52.683594 33.511719 -55.453125 30.105469 -55.453125 C 26.699219 -55.453125 23.925781 -52.683594 23.925781 -49.277344 C 23.925781 -44.601562 27.253906 -40.480469 29.867188 -38.105469 C 27.570312 -39.136719 24.953125 -39.691406 22.261719 -39.691406 C 12.28125 -39.691406 4.199219 -31.925781 4.199219 -22.261719 C 4.199219 -18.222656 5.625 -14.496094 8.082031 -11.566406 C 3.882812 -10.296875 0.792969 -6.179688 0.792969 -1.347656 C 0.792969 4.59375 5.308594 9.347656 10.933594 9.347656 C 20.597656 9.347656 24.320312 -4.992188 33.667969 -4.992188 C 38.976562 -4.992188 43.335938 -0.476562 43.335938 5.148438 C 43.335938 12.675781 37.550781 18.695312 30.5 18.695312 C 28.914062 18.695312 28.042969 18.300781 28.042969 17.03125 C 28.042969 16.242188 28.679688 15.289062 29.390625 14.578125 C 30.5 13.46875 31.132812 11.882812 31.132812 10.21875 C 31.132812 6.8125 28.441406 4.039062 25.035156 4.039062 C 21.628906 4.039062 18.855469 6.8125 18.855469 10.21875 C 18.855469 15.050781 24.398438 19.171875 30.5 19.171875 C 37.789062 19.171875 43.808594 12.914062 43.808594 5.148438 C 43.808594 -1.503906 39.292969 -7.128906 33.351562 -8.554688 Z M 22.261719 -39.214844 C 26.300781 -39.214844 28.441406 -33.589844 28.441406 -22.261719 C 28.441406 -15.527344 27.648438 -10.773438 26.144531 -8.082031 C 24.398438 -7.445312 22.65625 -6.574219 20.914062 -5.546875 C 17.824219 -6.734375 16.160156 -12.359375 16.160156 -22.261719 C 16.160156 -33.589844 18.300781 -39.214844 22.261719 -39.214844 Z M 5.703125 -6.734375 C 5.703125 -8.636719 6.734375 -10.296875 8.316406 -11.25 C 11.171875 -7.921875 15.289062 -5.625 19.964844 -4.992188 C 16.796875 -3.25 13.863281 -1.503906 10.933594 -1.503906 C 8.082031 -1.503906 5.703125 -3.882812 5.703125 -6.734375 Z M 5.703125 -6.734375 "/></g></g></g><g fill="#000000" fill-opacity="1"><g transform="translate(223.030228, 120.029621)"><g><path d="M -3.855469 -8.410156 L -2.828125 -6.289062 C -2.597656 -6.886719 -1.984375 -7.292969 -1.558594 -7.496094 L -0.9375 -7.796875 L 1.773438 -2.1875 C 1.980469 -1.757812 2.109375 -1.230469 1.992188 -0.964844 L 4.539062 -2.195312 C 4.257812 -2.269531 3.929688 -2.6875 3.71875 -3.117188 L 1.003906 -8.734375 L 1.648438 -9.046875 C 2.074219 -9.253906 2.769531 -9.484375 3.386719 -9.292969 L 2.359375 -11.414062 Z M -3.855469 -8.410156 "/></g></g></g><g fill="#000000" fill-opacity="1"><g transform="translate(236.323473, 114.275913)"><g><path d="M 2.90625 -0.816406 C 2.640625 -0.941406 2.390625 -1.417969 2.257812 -1.878906 L 1.542969 -4.425781 L 3.960938 -5.105469 L 4.679688 -2.550781 C 4.808594 -2.089844 4.839844 -1.558594 4.679688 -1.316406 L 7.398438 -2.078125 C 7.136719 -2.203125 6.882812 -2.679688 6.753906 -3.140625 L 4.898438 -9.738281 C 4.769531 -10.199219 4.738281 -10.738281 4.898438 -10.984375 L 2.175781 -10.21875 C 2.441406 -10.09375 2.691406 -9.625 2.820312 -9.164062 L 3.496094 -6.765625 L 1.078125 -6.085938 L 0.40625 -8.476562 C 0.277344 -8.9375 0.246094 -9.476562 0.40625 -9.722656 L -2.316406 -8.957031 C -2.054688 -8.832031 -1.800781 -8.363281 -1.671875 -7.902344 L 0.1875 -1.285156 C 0.316406 -0.824219 0.34375 -0.296875 0.183594 -0.0507812 Z M 2.90625 -0.816406 "/></g></g></g><g fill="#000000" fill-opacity="1"><g transform="translate(250.984471, 110.820581)"><g><path d="M 4.910156 -0.308594 C 6.265625 -0.433594 7.433594 -0.925781 8.089844 -1.804688 C 7.695312 -2.558594 7.304688 -3.542969 7.304688 -3.542969 C 7.304688 -3.542969 6.746094 -2.324219 5.09375 -2.171875 C 4.242188 -2.09375 3.421875 -2.347656 2.847656 -2.949219 C 2.359375 -3.847656 3.246094 -4.359375 4.398438 -4.46875 C 5.144531 -4.535156 5.929688 -4.28125 6.339844 -3.992188 L 6.144531 -6.101562 C 5.964844 -6.375 5.277344 -6.558594 4.691406 -6.507812 C 3.175781 -6.367188 2.230469 -5.019531 2.484375 -3.425781 C 2.257812 -3.796875 2.109375 -4.265625 2.058594 -4.828125 C 1.875 -6.796875 3.085938 -7.878906 4.554688 -8.015625 C 6.207031 -8.167969 6.980469 -7.074219 6.980469 -7.074219 C 6.980469 -7.074219 7.183594 -8.113281 7.433594 -8.925781 C 6.625 -9.667969 5.386719 -9.929688 4.03125 -9.804688 C 1.253906 -9.546875 -0.332031 -7.253906 -0.0898438 -4.640625 C 0.148438 -2.027344 2.132812 -0.0507812 4.910156 -0.308594 Z M 4.910156 -0.308594 "/></g></g></g><g fill="#000000" fill-opacity="1"><g transform="translate(266.443229, 110.155579)"><g/></g></g><g fill="#000000" fill-opacity="1"><g transform="translate(276.506121, 110.98534)"><g><path d="M 2.277344 -8.964844 C 2.726562 -8.125 2.734375 -7.195312 2.828125 -6.03125 C 3.046875 -3.242188 3.089844 -1.871094 3.25 0.789062 L 4.972656 1.210938 C 5.714844 0.472656 6.65625 -0.472656 7.472656 -1.527344 C 7.527344 -0.496094 7.585938 0.523438 7.664062 1.863281 L 9.386719 2.28125 C 10.871094 0.808594 13.097656 -1.460938 13.683594 -3.863281 C 14.121094 -5.660156 13.425781 -6.253906 13.425781 -6.253906 L 11.320312 -6.765625 C 11.320312 -6.765625 11.925781 -5.839844 11.503906 -4.105469 C 11.230469 -2.980469 10.378906 -1.511719 9.660156 -1.035156 C 9.605469 -2.191406 9.445312 -4.609375 9.410156 -5.878906 C 9.449219 -6.945312 9.011719 -7.328125 9.011719 -7.328125 L 6.90625 -7.839844 C 6.90625 -7.839844 7.511719 -6.914062 7.089844 -5.179688 C 6.816406 -4.054688 5.964844 -2.582031 5.246094 -2.105469 C 5.179688 -3.730469 4.867188 -6.785156 5.046875 -7.53125 C 5.109375 -7.78125 5.273438 -8.019531 5.539062 -8.171875 Z M 2.277344 -8.964844 "/></g></g></g><g fill="#000000" fill-opacity="1"><g transform="translate(295.286292, 116.555367)"><g><path d="M 0.910156 0.433594 L 3.304688 1.574219 C 3.101562 0.59375 3.148438 -0.347656 3.488281 -1.398438 L 5.808594 -0.292969 L 5.132812 1.125 C 4.925781 1.558594 4.601562 1.976562 4.320312 2.054688 L 6.871094 3.269531 C 6.753906 3 6.878906 2.476562 7.082031 2.042969 L 10.242188 -4.59375 C 10.214844 -5.179688 9.496094 -5.882812 8.691406 -6.265625 C 5.878906 -7.605469 3.121094 -5.777344 1.988281 -3.394531 C 1.316406 -1.984375 1.078125 -0.996094 0.910156 0.433594 Z M 4.277344 -3.039062 C 4.996094 -4.097656 6.300781 -5.214844 7.816406 -4.496094 L 6.589844 -1.9375 Z M 4.277344 -3.039062 "/></g></g></g><g fill="#000000" fill-opacity="1"><g transform="translate(308.454741, 123.50702)"><g><path d="M 5.5 -7.4375 C 5.640625 -7.074219 5.566406 -6.609375 5.476562 -6.046875 C 5.132812 -3.855469 4.882812 -2.820312 4.515625 -0.824219 L 3.273438 0.890625 C 2.992188 1.277344 2.589844 1.636719 2.296875 1.664062 L 4.589844 3.320312 C 4.523438 3.035156 4.730469 2.550781 5.011719 2.164062 L 6.25 0.453125 C 8.03125 -0.515625 8.933594 -1.082031 10.90625 -2.089844 C 11.414062 -2.351562 11.832031 -2.566406 12.222656 -2.546875 L 9.402344 -4.585938 C 9.421875 -4.21875 9.320312 -4.019531 9.171875 -3.808594 C 8.730469 -3.203125 7.304688 -2.296875 6.578125 -1.828125 C 6.796875 -2.6875 7.214844 -4.328125 7.652344 -4.933594 C 7.804688 -5.140625 7.964844 -5.296875 8.320312 -5.394531 Z M 5.5 -7.4375 "/></g></g></g><g fill="#000000" fill-opacity="1"><g transform="translate(320.738153, 133.358586)"><g/></g></g><g fill="#000000" fill-opacity="1"><g transform="translate(327.702683, 140.715634)"><g><path d="M 3.929688 -2.453125 C 1.808594 -0.902344 0.851562 1.410156 2.632812 3.855469 C 4.417969 6.300781 6.914062 6.097656 9.035156 4.546875 C 11.164062 2.996094 12.125 0.683594 10.339844 -1.765625 C 8.554688 -4.210938 6.058594 -4.003906 3.929688 -2.453125 Z M 5.207031 -0.714844 C 6.507812 -1.664062 7.945312 -1.90625 8.839844 -0.683594 C 9.742188 0.558594 9.074219 1.851562 7.773438 2.800781 C 6.480469 3.742188 5.035156 3.992188 4.132812 2.753906 C 3.238281 1.527344 3.914062 0.226562 5.207031 -0.714844 Z M 5.207031 -0.714844 "/></g></g></g><g fill="#000000" fill-opacity="1"><g transform="translate(336.809061, 154.48083)"><g><path d="M 1.296875 2.726562 C 1.375 2.445312 1.792969 2.117188 2.226562 1.910156 L 4.054688 1.042969 C 4.65625 0.746094 5.414062 2.007812 5.558594 2.308594 C 6.027344 3.296875 5.980469 3.839844 5.851562 4.324219 L 7.796875 3.398438 C 7.964844 3.085938 7.882812 2.488281 7.632812 1.960938 C 7.152344 0.957031 6.207031 0.417969 5.253906 0.46875 L 7.859375 -0.773438 L 9.097656 1.824219 C 9.296875 2.25 9.523438 2.945312 9.328125 3.5625 L 11.457031 2.546875 L 8.433594 -3.804688 C 8.355469 -3.523438 7.925781 -3.191406 7.496094 -2.984375 L 1.308594 -0.0390625 C 0.875 0.167969 0.351562 0.289062 0.0820312 0.171875 Z M 1.296875 2.726562 "/></g></g></g><g fill="#000000" fill-opacity="1"><g transform="translate(342.478017, 168.024155)"><g/></g></g><g fill="#000000" fill-opacity="1"><g transform="translate(345.078717, 177.844496)"><g><path d="M 0.0273438 0.191406 L 1.023438 6.777344 L 3.355469 6.421875 C 2.851562 6.023438 2.644531 5.320312 2.574219 4.855469 L 2.203125 2.382812 L 8.371094 1.449219 C 8.84375 1.375 9.375 1.414062 9.597656 1.601562 L 9.171875 -1.195312 C 9.015625 -0.945312 8.511719 -0.753906 8.039062 -0.683594 L 1.261719 0.34375 C 0.789062 0.414062 0.25 0.378906 0.0273438 0.191406 Z M 0.0273438 0.191406 "/></g></g></g><g fill="#000000" fill-opacity="1"><g transform="translate(346.545158, 192.078775)"><g><path d="M 0 0.191406 L 0.0078125 3.019531 C 0.199219 2.796875 0.714844 2.683594 1.195312 2.679688 L 8.066406 2.667969 C 8.546875 2.667969 9.0625 2.78125 9.253906 3 L 9.25 0.171875 C 9.058594 0.394531 8.53125 0.511719 8.050781 0.511719 L 1.199219 0.523438 C 0.71875 0.527344 0.191406 0.410156 0 0.191406 Z M 0 0.191406 "/></g></g></g><g fill="#000000" fill-opacity="1"><g transform="translate(346.176175, 202.557289)"><g><path d="M -0.445312 2.984375 C -0.222656 2.796875 0.304688 2.757812 0.777344 2.828125 L 2.777344 3.128906 C 3.445312 3.21875 3.371094 4.691406 3.320312 5.019531 C 3.160156 6.101562 2.816406 6.523438 2.4375 6.855469 L 4.570312 7.175781 C 4.882812 7.007812 5.148438 6.46875 5.234375 5.890625 C 5.398438 4.789062 4.914062 3.816406 4.097656 3.324219 L 6.949219 3.75 L 6.523438 6.59375 C 6.457031 7.058594 6.253906 7.765625 5.75 8.164062 L 8.082031 8.511719 L 9.117188 1.554688 C 8.898438 1.746094 8.359375 1.78125 7.882812 1.710938 L 1.105469 0.699219 C 0.632812 0.628906 0.128906 0.4375 -0.0273438 0.191406 Z M -0.445312 2.984375 "/></g></g></g><g fill="#000000" fill-opacity="1"><g transform="translate(343.419368, 216.905588)"><g><path d="M -1.71875 4.609375 C -2.15625 5.898438 -2.179688 7.164062 -1.648438 8.125 C -0.796875 8.070312 0.257812 8.113281 0.257812 8.113281 C 0.257812 8.113281 -0.621094 7.105469 -0.0898438 5.535156 C 0.183594 4.730469 0.75 4.082031 1.53125 3.800781 C 2.550781 3.722656 2.660156 4.742188 2.289062 5.839844 C 2.046875 6.546875 1.496094 7.160156 1.0625 7.417969 L 3.070312 8.097656 C 3.390625 8.046875 3.84375 7.488281 4.03125 6.9375 C 4.519531 5.492188 3.675781 4.082031 2.117188 3.664062 C 2.550781 3.609375 3.039062 3.664062 3.574219 3.84375 C 5.441406 4.480469 5.9375 6.027344 5.464844 7.421875 C 4.929688 8.992188 3.617188 9.253906 3.617188 9.253906 C 3.617188 9.253906 4.484375 9.863281 5.121094 10.425781 C 6.132812 9.988281 6.875 8.964844 7.3125 7.675781 C 8.210938 5.035156 6.761719 2.652344 4.273438 1.808594 C 1.789062 0.960938 -0.820312 1.96875 -1.71875 4.609375 Z M -1.71875 4.609375 "/></g></g></g><g fill="#ffffff" fill-opacity="1"><g transform="translate(46.037331, 234.743188)"><g><path d="M 2.296875 -11.171875 L 4.25 -7.28125 L 6.390625 -11.171875 L 8.9375 -11.171875 L 5.40625 -5.125 L 5.40625 0 L 3.234375 0 L 3.234375 -5.125 L -0.234375 -11.171875 Z M 2.296875 -11.171875 "/></g></g></g><g fill="#ffffff" fill-opacity="1"><g transform="translate(57.488646, 234.743188)"><g><path d="M 0.265625 -5.59375 C 0.265625 -6.71875 0.5 -7.722656 0.96875 -8.609375 C 1.4375 -9.503906 2.09375 -10.203125 2.9375 -10.703125 C 3.78125 -11.210938 4.734375 -11.46875 5.796875 -11.46875 C 6.867188 -11.46875 7.828125 -11.207031 8.671875 -10.6875 C 9.523438 -10.164062 10.175781 -9.457031 10.625 -8.5625 C 11.082031 -7.675781 11.3125 -6.6875 11.3125 -5.59375 C 11.3125 -4.457031 11.078125 -3.441406 10.609375 -2.546875 C 10.140625 -1.648438 9.488281 -0.953125 8.65625 -0.453125 C 7.820312 0.046875 6.867188 0.296875 5.796875 0.296875 C 4.734375 0.296875 3.785156 0.0507812 2.953125 -0.4375 C 2.117188 -0.925781 1.460938 -1.625 0.984375 -2.53125 C 0.503906 -3.4375 0.265625 -4.457031 0.265625 -5.59375 Z M 5.78125 -9.3125 C 4.851562 -9.3125 4.078125 -8.957031 3.453125 -8.25 C 2.828125 -7.539062 2.515625 -6.6875 2.515625 -5.6875 C 2.515625 -4.570312 2.804688 -3.648438 3.390625 -2.921875 C 3.984375 -2.203125 4.785156 -1.84375 5.796875 -1.84375 C 6.796875 -1.84375 7.585938 -2.203125 8.171875 -2.921875 C 8.765625 -3.648438 9.0625 -4.570312 9.0625 -5.6875 C 9.0625 -6.695312 8.75 -7.550781 8.125 -8.25 C 7.507812 -8.957031 6.726562 -9.3125 5.78125 -9.3125 Z M 5.78125 -9.3125 "/></g></g></g><g fill="#ffffff" fill-opacity="1"><g transform="translate(71.828419, 234.743188)"><g><path d="M 8.203125 -7.765625 C 7.972656 -8.265625 7.632812 -8.6875 7.1875 -9.03125 C 6.738281 -9.375 6.226562 -9.546875 5.65625 -9.546875 C 5.019531 -9.546875 4.460938 -9.347656 3.984375 -8.953125 C 3.503906 -8.566406 3.140625 -8.070312 2.890625 -7.46875 C 2.640625 -6.863281 2.515625 -6.222656 2.515625 -5.546875 C 2.515625 -4.453125 2.8125 -3.523438 3.40625 -2.765625 C 4 -2.003906 4.753906 -1.625 5.671875 -1.625 C 6.347656 -1.625 6.929688 -1.867188 7.421875 -2.359375 C 7.910156 -2.847656 8.175781 -3.445312 8.21875 -4.15625 L 5.84375 -4.15625 L 5.84375 -5.9375 L 10.671875 -5.9375 L 10.671875 -5.625 C 10.671875 -4.46875 10.46875 -3.441406 10.0625 -2.546875 C 9.65625 -1.660156 9.066406 -0.960938 8.296875 -0.453125 C 7.535156 0.046875 6.628906 0.296875 5.578125 0.296875 C 4.554688 0.296875 3.632812 0.0351562 2.8125 -0.484375 C 2 -1.015625 1.367188 -1.722656 0.921875 -2.609375 C 0.484375 -3.503906 0.265625 -4.484375 0.265625 -5.546875 C 0.265625 -6.648438 0.492188 -7.644531 0.953125 -8.53125 C 1.410156 -9.425781 2.054688 -10.140625 2.890625 -10.671875 C 3.722656 -11.203125 4.664062 -11.46875 5.71875 -11.46875 C 6.675781 -11.46875 7.535156 -11.238281 8.296875 -10.78125 C 9.066406 -10.332031 9.675781 -9.671875 10.125 -8.796875 Z M 8.203125 -7.765625 "/></g></g></g><g fill="#ffffff" fill-opacity="1"><g transform="translate(85.531244, 234.743188)"><g><path d="M 5.90625 -11.46875 L 10.140625 0 L 7.828125 0 L 6.96875 -2.359375 L 3.078125 -2.359375 L 2.15625 0 L -0.140625 0 L 4.21875 -11.46875 Z M 3.703125 -4.125 L 6.359375 -4.125 L 4.96875 -8.1875 L 4.9375 -8.1875 Z M 3.703125 -4.125 "/></g></g></g><g fill="#ffffff" fill-opacity="1"><g transform="translate(98.300876, 234.743188)"><g/></g></g><g fill="#ffffff" fill-opacity="1"><g transform="translate(105.338036, 234.743188)"><g><path d="M 7.859375 -11.3125 L 10.171875 -3.5625 L 10.203125 -3.5625 L 12.390625 -11.171875 L 14.671875 -11.171875 L 10.90625 0.21875 L 9.296875 0.21875 L 7.078125 -7.078125 L 7.046875 -7.078125 L 4.953125 0.21875 L 3.34375 0.21875 L -0.203125 -11.171875 L 2.078125 -11.171875 L 4.328125 -3.5625 L 4.359375 -3.5625 L 6.578125 -11.3125 Z M 7.859375 -11.3125 "/></g></g></g><g fill="#ffffff" fill-opacity="1"><g transform="translate(122.566262, 234.743188)"><g><path d="M 2.984375 -11.171875 L 2.984375 0 L 0.796875 0 L 0.796875 -11.171875 Z M 2.984375 -11.171875 "/></g></g></g><g fill="#ffffff" fill-opacity="1"><g transform="translate(129.084983, 234.743188)"><g><path d="M 6.6875 -11.171875 L 6.6875 -9.265625 L 4.421875 -9.265625 L 4.421875 0 L 2.25 0 L 2.25 -9.265625 L 0 -9.265625 L 0 -11.171875 Z M 6.6875 -11.171875 "/></g></g></g><g fill="#ffffff" fill-opacity="1"><g transform="translate(138.521786, 234.743188)"><g><path d="M 2.984375 -11.171875 L 2.984375 -6.765625 L 7 -6.765625 L 7 -11.171875 L 9.1875 -11.171875 L 9.1875 0 L 7 0 L 7 -4.984375 L 2.984375 -4.984375 L 2.984375 0 L 0.796875 0 L 0.796875 -11.171875 Z M 2.984375 -11.171875 "/></g></g></g><g fill="#ffffff" fill-opacity="1"><g transform="translate(151.2618, 234.743188)"><g/></g></g><g fill="#ffffff" fill-opacity="1"><g transform="translate(158.298955, 234.743188)"><g><path d="M 2.984375 -11.171875 L 2.984375 -6.453125 L 3 -6.453125 L 6.453125 -11.171875 L 9.140625 -11.171875 L 4.90625 -6.015625 L 9.375 0 L 6.578125 0 L 3 -5.015625 L 2.984375 -5.015625 L 2.984375 0 L 0.796875 0 L 0.796875 -11.171875 Z M 2.984375 -11.171875 "/></g></g></g><g fill="#ffffff" fill-opacity="1"><g transform="translate(170.239079, 234.743188)"><g><path d="M 5.90625 -11.46875 L 10.140625 0 L 7.828125 0 L 6.96875 -2.359375 L 3.078125 -2.359375 L 2.15625 0 L -0.140625 0 L 4.21875 -11.46875 Z M 3.703125 -4.125 L 6.359375 -4.125 L 4.96875 -8.1875 L 4.9375 -8.1875 Z M 3.703125 -4.125 "/></g></g></g><g fill="#ffffff" fill-opacity="1"><g transform="translate(183.008704, 234.743188)"><g><path d="M 2.140625 -11.171875 L 4.8125 -3.640625 L 4.84375 -3.640625 L 7.328125 -11.171875 L 9.671875 -11.171875 L 5.328125 0.296875 L 4.0625 0.296875 L -0.203125 -11.171875 Z M 2.140625 -11.171875 "/></g></g></g><g fill="#ffffff" fill-opacity="1"><g transform="translate(195.230273, 234.743188)"><g><path d="M 2.984375 -11.171875 L 2.984375 0 L 0.796875 0 L 0.796875 -11.171875 Z M 2.984375 -11.171875 "/></g></g></g><g fill="#ffffff" fill-opacity="1"><g transform="translate(201.748987, 234.743188)"><g><path d="M 6.6875 -11.171875 L 6.6875 -9.265625 L 4.421875 -9.265625 L 4.421875 0 L 2.25 0 L 2.25 -9.265625 L 0 -9.265625 L 0 -11.171875 Z M 6.6875 -11.171875 "/></g></g></g><g fill="#ffffff" fill-opacity="1"><g transform="translate(211.185785, 234.743188)"><g><path d="M 5.90625 -11.46875 L 10.140625 0 L 7.828125 0 L 6.96875 -2.359375 L 3.078125 -2.359375 L 2.15625 0 L -0.140625 0 L 4.21875 -11.46875 Z M 3.703125 -4.125 L 6.359375 -4.125 L 4.96875 -8.1875 L 4.9375 -8.1875 Z M 3.703125 -4.125 "/></g></g></g><g fill="#ffffff" fill-opacity="1"><g transform="translate(223.955411, 234.743188)"><g/></g></g><g fill="#ffffff" fill-opacity="1"><g transform="translate(230.992565, 234.743188)"><g><path d="M 6.6875 -11.171875 L 6.6875 -9.265625 L 4.421875 -9.265625 L 4.421875 0 L 2.25 0 L 2.25 -9.265625 L 0 -9.265625 L 0 -11.171875 Z M 6.6875 -11.171875 "/></g></g></g><g fill="#ffffff" fill-opacity="1"><g transform="translate(240.429363, 234.743188)"><g><path d="M 3.8125 -11.171875 C 4.976562 -11.171875 5.878906 -10.878906 6.515625 -10.296875 C 7.160156 -9.722656 7.484375 -8.894531 7.484375 -7.8125 C 7.484375 -7.019531 7.265625 -6.328125 6.828125 -5.734375 C 6.398438 -5.148438 5.859375 -4.804688 5.203125 -4.703125 L 8.359375 0 L 5.71875 0 L 3 -4.5 L 2.984375 -4.5 L 2.984375 0 L 0.796875 0 L 0.796875 -11.171875 Z M 2.984375 -6.03125 L 3.21875 -6.03125 C 3.96875 -6.03125 4.5 -6.164062 4.8125 -6.4375 C 5.132812 -6.71875 5.296875 -7.15625 5.296875 -7.75 C 5.296875 -8.332031 5.140625 -8.75 4.828125 -9 C 4.515625 -9.257812 3.988281 -9.390625 3.25 -9.390625 L 2.984375 -9.390625 Z M 2.984375 -6.03125 "/></g></g></g><g fill="#ffffff" fill-opacity="1"><g transform="translate(251.451121, 234.743188)"><g><path d="M 2.984375 -11.171875 L 2.984375 0 L 0.796875 0 L 0.796875 -11.171875 Z M 2.984375 -11.171875 "/></g></g></g><g fill="#ffffff" fill-opacity="1"><g transform="translate(257.969836, 234.743188)"><g><path d="M 3.84375 -11.171875 C 5.09375 -11.171875 6.035156 -10.878906 6.671875 -10.296875 C 7.304688 -9.722656 7.625 -8.859375 7.625 -7.703125 C 7.625 -6.515625 7.3125 -5.628906 6.6875 -5.046875 C 6.070312 -4.460938 5.21875 -4.171875 4.125 -4.171875 L 2.984375 -4.171875 L 2.984375 0 L 0.796875 0 L 0.796875 -11.171875 Z M 2.984375 -5.984375 L 3.453125 -5.984375 C 4.128906 -5.984375 4.625 -6.097656 4.9375 -6.328125 C 5.25 -6.566406 5.40625 -7.03125 5.40625 -7.71875 C 5.40625 -8.332031 5.253906 -8.757812 4.953125 -9 C 4.648438 -9.238281 4.160156 -9.359375 3.484375 -9.359375 L 2.984375 -9.359375 Z M 2.984375 -5.984375 "/></g></g></g><g fill="#ffffff" fill-opacity="1"><g transform="translate(268.54722, 234.743188)"><g><path d="M 5.90625 -11.46875 L 10.140625 0 L 7.828125 0 L 6.96875 -2.359375 L 3.078125 -2.359375 L 2.15625 0 L -0.140625 0 L 4.21875 -11.46875 Z M 3.703125 -4.125 L 6.359375 -4.125 L 4.96875 -8.1875 L 4.9375 -8.1875 Z M 3.703125 -4.125 "/></g></g></g><g fill="#ffffff" fill-opacity="1"><g transform="translate(281.316857, 234.743188)"><g><path d="M 6.6875 -11.171875 L 6.6875 -9.265625 L 4.421875 -9.265625 L 4.421875 0 L 2.25 0 L 2.25 -9.265625 L 0 -9.265625 L 0 -11.171875 Z M 6.6875 -11.171875 "/></g></g></g><g fill="#ffffff" fill-opacity="1"><g transform="translate(290.753655, 234.743188)"><g><path d="M 2.984375 -11.171875 L 2.984375 -6.765625 L 7 -6.765625 L 7 -11.171875 L 9.1875 -11.171875 L 9.1875 0 L 7 0 L 7 -4.984375 L 2.984375 -4.984375 L 2.984375 0 L 0.796875 0 L 0.796875 -11.171875 Z M 2.984375 -11.171875 "/></g></g></g><g fill="#ffffff" fill-opacity="1"><g transform="translate(303.493674, 234.743188)"><g><path d="M 2.984375 -11.171875 L 2.984375 0 L 0.796875 0 L 0.796875 -11.171875 Z M 2.984375 -11.171875 "/></g></g></g></svg>