<svg width="82" height="17" viewBox="0 0 82 17" fill="none" xmlns="http://www.w3.org/2000/svg">
<g clip-path="url(#clip0_1144_1732)">
<path d="M73.1891 11.6569L77.4075 14.1746L76.2881 9.42936L80.015 6.23661L75.1072 5.82486L73.1891 1.34961L71.2711 5.82486L66.3633 6.23661L70.0902 9.42936L68.9708 14.1746L73.1891 11.6569Z" fill="#FF9900"/>
</g>
<g clip-path="url(#clip1_1144_1732)">
<path d="M8.18912 11.6569L12.4075 14.1746L11.2881 9.42936L15.015 6.23661L10.1072 5.82486L8.18912 1.34961L6.27106 5.82486L1.36328 6.23661L5.09019 9.42936L3.97075 14.1746L8.18912 11.6569Z" fill="#FF9900"/>
</g>
<g clip-path="url(#clip2_1144_1732)">
<path d="M24.5719 11.6569L28.7903 14.1746L27.6709 9.42936L31.3978 6.23661L26.49 5.82486L24.5719 1.34961L22.6539 5.82486L17.7461 6.23661L21.473 9.42936L20.3536 14.1746L24.5719 11.6569Z" fill="#FF9900"/>
</g>
<g clip-path="url(#clip3_1144_1732)">
<path d="M40.9547 11.6569L45.1731 14.1746L44.0537 9.42936L47.7806 6.23661L42.8728 5.82486L40.9547 1.34961L39.0367 5.82486L34.1289 6.23661L37.8558 9.42936L36.7364 14.1746L40.9547 11.6569Z" fill="#FF9900"/>
</g>
<g clip-path="url(#clip4_1144_1732)">
<path d="M56.4235 11.6569L60.6419 14.1746L59.5224 9.42936L63.2493 6.23661L58.3416 5.82486L56.4235 1.34961L54.5054 5.82486L49.5977 6.23661L53.3246 9.42936L52.2051 14.1746L56.4235 11.6569Z" fill="#FF9900"/>
</g>
<defs>
<clipPath id="clip0_1144_1732">
<rect width="16.382" height="16.2" fill="white" transform="translate(65)"/>
</clipPath>
<clipPath id="clip1_1144_1732">
<rect width="16.382" height="16.2" fill="white"/>
</clipPath>
<clipPath id="clip2_1144_1732">
<rect width="16.382" height="16.2" fill="white" transform="translate(16.3828)"/>
</clipPath>
<clipPath id="clip3_1144_1732">
<rect width="16.382" height="16.2" fill="white" transform="translate(32.7656)"/>
</clipPath>
<clipPath id="clip4_1144_1732">
<rect width="16.382" height="16.2" fill="white" transform="translate(48.2344)"/>
</clipPath>
</defs>
</svg>
